<?xml version="1.0" encoding="UTF-8"?><!DOCTYPE svg PUBLIC "-//W3C//DTD SVG 1.0//EN" "http://www.w3.org/TR/2001/REC-SVG-20010904/DTD/svg10.dtd" []><svg xmlns="http://www.w3.org/2000/svg" xmlns:xlink="http://www.w3.org/1999/xlink" data-name="Layer 1" height="221" preserveAspectRatio="xMidYMid meet" version="1.0" viewBox="0.0 -0.0 228.0 221.0" width="228" zoomAndPan="magnify"><g><g id="change1_1"><path d="M100.58,56.74v-5.75c-1.92-.26-3.88-.43-5.87-.43-24.04,0-43.59,19.55-43.59,43.59,0,14.75,7.37,27.8,18.61,35.69-7.25-7.79-11.56-18.22-11.56-29.68,0-23.69,18.86-42.87,42.42-43.43Z" fill="#25f4ee"/></g><g id="change1_2"><path d="M101.6,120.22c10.72,0,19.62-8.67,20.02-19.3l.03-94.76,17.19-.15c-.36-1.95-.56-3.96-.56-6.01h-23.68l-.04,94.91c-.4,10.63-9.15,19.16-19.87,19.16-3.33,0-6.47-.83-9.23-2.29,3.62,5.01,9.5,8.44,16.14,8.44Z" fill="#25f4ee"/></g><g id="change1_3"><path d="M171.24,38.38v-5.43c-6.61,0-12.78-1.97-17.94-5.34,4.6,5.28,10.85,9.25,17.94,10.77Z" fill="#25f4ee"/></g><g id="change2_1"><path d="M153.3,27.61c-5.04-5.79-8.1-13.34-8.1-21.6h-6.34c1.67,9.02,7.03,16.76,14.45,21.6Z" fill="#fe2c55"/></g><g id="change2_2"><path d="M94.7,74.25c-10.98,0-19.91,8.93-19.91,19.91,0,7.64,4.34,14.29,10.67,17.62-2.36-3.27-3.77-7.28-3.77-11.61,0-10.98,8.93-19.91,19.91-19.91,2.05,0,4.01.34,5.87.92v-24.18c-1.92-.26-3.88-.43-5.87-.43-.35,0-.69.02-1.03.03v18.57c-1.86-.58-3.82-.92-5.87-.92Z" fill="#fe2c55"/></g><g id="change2_3"><path d="M171.24,38.22v18.41c-12.28,0-23.66-3.93-32.95-10.6v48.13c0,24.04-19.55,43.59-43.59,43.59-9.29,0-17.9-2.93-24.98-7.9,7.96,8.55,19.31,13.91,31.88,13.91,24.04,0,43.59-19.55,43.59-43.59v-48.13c9.29,6.67,20.67,10.6,32.95,10.6v-23.68c-2.37,0-4.68-.26-6.9-.73Z" fill="#fe2c55"/></g><g id="change3_1"><path d="M138.29,94.16v-48.13c9.29,6.67,20.67,10.6,32.95,10.6v-18.41c-7.09-1.52-13.34-5.33-17.94-10.61-7.42-4.84-12.78-12.58-14.45-21.6h-17.34l-.04,94.91c-.4,10.63-9.15,19.16-19.87,19.16-6.64,0-12.52-3.28-16.14-8.3-6.34-3.33-10.67-9.98-10.67-17.62,0-10.98,8.93-19.91,19.91-19.91,2.05,0,4.01.34,5.87.92v-18.57c-23.56.55-42.56,19.87-42.56,43.56,0,11.46,4.45,21.89,11.71,29.68,7.08,4.97,15.69,7.9,24.98,7.9,24.04,0,43.59-19.55,43.59-43.59Z"/></g></g><g><g id="change3_2"><path d="M0,169.68h38.19l-3.51,10.93h-9.91s0,40.39,0,40.39h-12.35v-40.4l-12.42.02v-10.95Z"/></g><g id="change3_3"><path d="M100.75,169.68h39.07l-3.51,10.93h-10.77s0,40.39,0,40.39h-12.36v-40.4l-12.42.02v-10.95Z"/></g><g id="change3_4"><path d="M40.52 186L52.76 186 52.75 221 40.59 221 40.52 186z"/></g><g id="change3_5"><path d="M57.62,169.54h12.23v23.9l12.12-11.89h14.6s-15.33,14.88-15.33,14.88l17.17,24.58h-13.48l-11.46-17.04-3.63,3.52v13.52h-12.23v-51.46Z"/></g><g id="change3_6"><path d="M187.21,169.54h12.23v23.9l12.12-11.89h14.6s-15.33,14.88-15.33,14.88l17.17,24.58h-13.48l-11.46-17.04-3.63,3.52v13.52h-12.23v-51.46Z"/></g><g id="change3_7"><circle cx="46.64" cy="175.84" r="6.16"/></g><g id="change1_4"><path d="M138.35,200.05c0-11.02,8.51-20.04,19.31-20.88-.54-.04-1.37-.07-1.92-.07-11.57,0-20.95,9.38-20.95,20.95s9.38,20.95,20.95,20.95c.55,0,1.38-.03,1.92-.07-10.8-.84-19.31-9.86-19.31-20.88Z" fill="#25f4ee"/></g><g id="change2_4"><path d="M162.33,179.1c-.56,0-1.39.03-1.94.07,10.8.84,19.29,9.87,19.29,20.88s-8.5,20.03-19.29,20.88c.55.04,1.38.07,1.94.07,11.57,0,20.95-9.38,20.95-20.95s-9.38-20.95-20.95-20.95Z" fill="#fe2c55"/></g><g id="change3_8"><path d="M159.01,179.1c-11.57,0-20.95,9.38-20.95,20.95s9.38,20.95,20.95,20.95,20.95-9.38,20.95-20.95-9.38-20.95-20.95-20.95ZM159.01,210.24c-5.62,0-10.18-4.56-10.18-10.18s4.56-10.18,10.18-10.18,10.18,4.56,10.18,10.18-4.56,10.18-10.18,10.18Z"/></g></g></svg>